<svg width="300" height="134" viewBox="0 0 300 134" fill="none" xmlns="http://www.w3.org/2000/svg">
<path d="M85.6619 94.9051C77.7499 106.822 60.2501 106.822 52.3382 94.9051L29.8684 61.0627C21.0421 47.7691 30.5734 30 46.5302 30L91.4697 30C107.427 30 116.958 47.7691 108.132 61.0627L85.6619 94.9051Z" fill="#582C92"/>
<path d="M85.6619 94.9051C77.7499 106.822 60.2501 106.822 52.3382 94.9051L29.8684 61.0627C21.0421 47.7691 30.5734 30 46.5302 30L91.4697 30C107.427 30 116.958 47.7691 108.132 61.0627L85.6619 94.9051Z" fill="#7647B4"/>
<path d="M75.3381 39.0949C83.2501 27.1785 100.75 27.1785 108.662 39.0949L131.132 72.9373C139.958 86.2309 130.427 104 114.47 104H69.5303C53.5734 104 44.0421 86.2309 52.8684 72.9373L75.3381 39.0949Z" fill="#582C92"/>
<path d="M68.9397 66.666C70.6117 66.666 72.0563 66.9813 73.2737 67.612C74.5057 68.228 75.4443 69.1153 76.0897 70.274C76.7497 71.4327 77.0797 72.7967 77.0797 74.366C77.0797 75.9353 76.7497 77.2993 76.0897 78.458C75.4443 79.602 74.5057 80.482 73.2737 81.098C72.0563 81.6993 70.6117 82 68.9397 82H64.1657V66.666H68.9397ZM68.9397 80.35C70.9197 80.35 72.4303 79.8293 73.4717 78.788C74.513 77.732 75.0337 76.258 75.0337 74.366C75.0337 72.4593 74.5057 70.9707 73.4497 69.9C72.4083 68.8293 70.905 68.294 68.9397 68.294H66.1677V80.35H68.9397ZM81.7224 68.294V73.42H87.3104V75.07H81.7224V80.35H87.9704V82H79.7204V66.644H87.9704V68.294H81.7224ZM93.0017 80.372H98.3697V82H90.9997V66.666H93.0017V80.372ZM109.934 66.666V68.294H105.754V82H103.752V68.294H99.5498V66.666H109.934ZM121.462 78.59H114.774L113.542 82H111.43L116.974 66.754H119.284L124.806 82H122.694L121.462 78.59ZM120.89 76.962L118.118 69.218L115.346 76.962H120.89Z" fill="white"/>
<path d="M144.016 83H140.664V69.5586H135.613V66.1953H149.055V69.5586H144.016V83ZM161.355 83H149.836V66.1953H161.355V69.5586H153.199V72.9219H158.719V76.2852H153.199V79.6367H161.355V83ZM175.707 81.2774C174.926 81.9492 174.051 82.4649 173.082 82.8242C172.113 83.1836 171.109 83.3633 170.07 83.3633C169.273 83.3633 168.504 83.2578 167.762 83.0469C167.027 82.8438 166.336 82.5547 165.688 82.1797C165.047 81.7969 164.461 81.3399 163.93 80.8086C163.398 80.2774 162.941 79.6914 162.559 79.0508C162.184 78.4024 161.891 77.7109 161.68 76.9766C161.477 76.2344 161.375 75.4649 161.375 74.668C161.375 73.8711 161.477 73.1016 161.68 72.3594C161.891 71.6172 162.184 70.9258 162.559 70.2852C162.941 69.6367 163.398 69.0469 163.93 68.5156C164.461 67.9844 165.047 67.5313 165.688 67.1563C166.336 66.7734 167.027 66.4805 167.762 66.2774C168.504 66.0664 169.273 65.9609 170.07 65.9609C171.109 65.9609 172.113 66.1406 173.082 66.5C174.051 66.8516 174.926 67.3672 175.707 68.0469L173.926 70.9766C173.434 70.4453 172.852 70.0391 172.18 69.7578C171.508 69.4688 170.805 69.3242 170.07 69.3242C169.328 69.3242 168.633 69.4649 167.984 69.7461C167.336 70.0274 166.77 70.4102 166.285 70.8945C165.801 71.3711 165.418 71.9375 165.137 72.5938C164.855 73.2422 164.715 73.9336 164.715 74.668C164.715 75.4024 164.855 76.0938 165.137 76.7422C165.418 77.3828 165.801 77.9453 166.285 78.4297C166.77 78.9141 167.336 79.2969 167.984 79.5781C168.633 79.8594 169.328 80 170.07 80C170.805 80 171.508 79.8594 172.18 79.5781C172.852 79.2891 173.434 78.8789 173.926 78.3477L175.707 81.2774ZM190.105 83H186.508L180.027 71.9375V83H176.664V66.1953H180.262L186.742 77.2695V66.1953H190.105V83ZM208.699 74.668C208.699 75.4649 208.594 76.2344 208.383 76.9766C208.18 77.7109 207.891 78.4024 207.516 79.0508C207.141 79.6914 206.688 80.2774 206.156 80.8086C205.625 81.3399 205.039 81.7969 204.398 82.1797C203.758 82.5547 203.066 82.8438 202.324 83.0469C201.582 83.2578 200.813 83.3633 200.016 83.3633C199.219 83.3633 198.449 83.2578 197.707 83.0469C196.973 82.8438 196.281 82.5547 195.633 82.1797C194.992 81.7969 194.406 81.3399 193.875 80.8086C193.344 80.2774 192.887 79.6914 192.504 79.0508C192.129 78.4024 191.836 77.7109 191.625 76.9766C191.422 76.2344 191.32 75.4649 191.32 74.668C191.32 73.8711 191.422 73.1016 191.625 72.3594C191.836 71.6172 192.129 70.9258 192.504 70.2852C192.887 69.6445 193.344 69.0586 193.875 68.5274C194.406 67.9961 194.992 67.543 195.633 67.168C196.281 66.793 196.973 66.5039 197.707 66.3008C198.449 66.0899 199.219 65.9844 200.016 65.9844C200.813 65.9844 201.582 66.0899 202.324 66.3008C203.066 66.5039 203.758 66.793 204.398 67.168C205.039 67.543 205.625 67.9961 206.156 68.5274C206.688 69.0586 207.141 69.6445 207.516 70.2852C207.891 70.9258 208.18 71.6172 208.383 72.3594C208.594 73.1016 208.699 73.8711 208.699 74.668ZM205.359 74.668C205.359 73.9336 205.219 73.2422 204.938 72.5938C204.656 71.9375 204.273 71.3711 203.789 70.8945C203.313 70.4102 202.746 70.0274 202.09 69.7461C201.441 69.4649 200.75 69.3242 200.016 69.3242C199.273 69.3242 198.578 69.4649 197.93 69.7461C197.281 70.0274 196.715 70.4102 196.23 70.8945C195.746 71.3711 195.363 71.9375 195.082 72.5938C194.801 73.2422 194.66 73.9336 194.66 74.668C194.66 75.4024 194.801 76.0938 195.082 76.7422C195.363 77.3828 195.746 77.9453 196.23 78.4297C196.715 78.9141 197.281 79.2969 197.93 79.5781C198.578 79.8594 199.273 80 200.016 80C200.75 80 201.441 79.8594 202.09 79.5781C202.746 79.2969 203.313 78.9141 203.789 78.4297C204.273 77.9453 204.656 77.3828 204.938 76.7422C205.219 76.0938 205.359 75.4024 205.359 74.668ZM221.68 83H209.914V66.1953H213.277V79.6367H221.68V83ZM238.316 74.668C238.316 75.4649 238.211 76.2344 238 76.9766C237.797 77.7109 237.508 78.4024 237.133 79.0508C236.758 79.6914 236.305 80.2774 235.773 80.8086C235.242 81.3399 234.656 81.7969 234.016 82.1797C233.375 82.5547 232.684 82.8438 231.941 83.0469C231.199 83.2578 230.43 83.3633 229.633 83.3633C228.836 83.3633 228.066 83.2578 227.324 83.0469C226.59 82.8438 225.898 82.5547 225.25 82.1797C224.609 81.7969 224.023 81.3399 223.492 80.8086C222.961 80.2774 222.504 79.6914 222.121 79.0508C221.746 78.4024 221.453 77.7109 221.242 76.9766C221.039 76.2344 220.938 75.4649 220.938 74.668C220.938 73.8711 221.039 73.1016 221.242 72.3594C221.453 71.6172 221.746 70.9258 222.121 70.2852C222.504 69.6445 222.961 69.0586 223.492 68.5274C224.023 67.9961 224.609 67.543 225.25 67.168C225.898 66.793 226.59 66.5039 227.324 66.3008C228.066 66.0899 228.836 65.9844 229.633 65.9844C230.43 65.9844 231.199 66.0899 231.941 66.3008C232.684 66.5039 233.375 66.793 234.016 67.168C234.656 67.543 235.242 67.9961 235.773 68.5274C236.305 69.0586 236.758 69.6445 237.133 70.2852C237.508 70.9258 237.797 71.6172 238 72.3594C238.211 73.1016 238.316 73.8711 238.316 74.668ZM234.977 74.668C234.977 73.9336 234.836 73.2422 234.555 72.5938C234.273 71.9375 233.891 71.3711 233.406 70.8945C232.93 70.4102 232.363 70.0274 231.707 69.7461C231.059 69.4649 230.367 69.3242 229.633 69.3242C228.891 69.3242 228.195 69.4649 227.547 69.7461C226.898 70.0274 226.332 70.4102 225.848 70.8945C225.363 71.3711 224.98 71.9375 224.699 72.5938C224.418 73.2422 224.277 73.9336 224.277 74.668C224.277 75.4024 224.418 76.0938 224.699 76.7422C224.98 77.3828 225.363 77.9453 225.848 78.4297C226.332 78.9141 226.898 79.2969 227.547 79.5781C228.195 79.8594 228.891 80 229.633 80C230.367 80 231.059 79.8594 231.707 79.5781C232.363 79.2969 232.93 78.9141 233.406 78.4297C233.891 77.9453 234.273 77.3828 234.555 76.7422C234.836 76.0938 234.977 75.4024 234.977 74.668ZM252.902 81.3008C252.121 81.9649 251.25 82.4766 250.289 82.8359C249.328 83.1875 248.328 83.3633 247.289 83.3633C246.492 83.3633 245.723 83.2578 244.98 83.0469C244.246 82.8438 243.559 82.5547 242.918 82.1797C242.277 81.7969 241.691 81.3438 241.16 80.8203C240.629 80.2891 240.176 79.7031 239.801 79.0625C239.426 78.4141 239.133 77.7188 238.922 76.9766C238.719 76.2344 238.617 75.4649 238.617 74.668C238.617 73.8711 238.719 73.1055 238.922 72.3711C239.133 71.6367 239.426 70.9492 239.801 70.3086C240.176 69.6602 240.629 69.0742 241.16 68.5508C241.691 68.0195 242.277 67.5664 242.918 67.1914C243.559 66.8164 244.246 66.5274 244.98 66.3242C245.723 66.1133 246.492 66.0078 247.289 66.0078C248.328 66.0078 249.328 66.1875 250.289 66.5469C251.25 66.8984 252.121 67.4063 252.902 68.0703L251.145 71C250.637 70.4844 250.051 70.082 249.387 69.793C248.723 69.4961 248.023 69.3477 247.289 69.3477C246.555 69.3477 245.863 69.4883 245.215 69.7695C244.574 70.0508 244.012 70.4336 243.527 70.918C243.043 71.3945 242.66 71.957 242.379 72.6055C242.098 73.2461 241.957 73.9336 241.957 74.668C241.957 75.4102 242.098 76.1055 242.379 76.7539C242.66 77.4024 243.043 77.9688 243.527 78.4531C244.012 78.9375 244.574 79.3203 245.215 79.6016C245.863 79.8828 246.555 80.0234 247.289 80.0234C247.711 80.0234 248.121 79.9727 248.52 79.8711C248.918 79.7695 249.297 79.6289 249.656 79.4492V74.668H252.902V81.3008ZM257.855 83H254.492V66.1953H257.855V83ZM269.875 76.2852V72.9219C269.875 72.4609 269.785 72.0274 269.605 71.6211C269.434 71.207 269.195 70.8477 268.891 70.543C268.586 70.2383 268.227 70 267.813 69.8281C267.406 69.6484 266.973 69.5586 266.512 69.5586C266.051 69.5586 265.613 69.6484 265.199 69.8281C264.793 70 264.438 70.2383 264.133 70.543C263.828 70.8477 263.586 71.207 263.406 71.6211C263.234 72.0274 263.148 72.4609 263.148 72.9219V76.2852H269.875ZM273.238 83H269.875V79.6367H263.148V83H259.797V72.9219C259.797 71.9922 259.973 71.1211 260.324 70.3086C260.676 69.4883 261.152 68.7734 261.754 68.1641C262.363 67.5547 263.074 67.0742 263.887 66.7227C264.707 66.3711 265.582 66.1953 266.512 66.1953C267.441 66.1953 268.313 66.3711 269.125 66.7227C269.945 67.0742 270.66 67.5547 271.27 68.1641C271.879 68.7734 272.359 69.4883 272.711 70.3086C273.063 71.1211 273.238 71.9922 273.238 72.9219V83Z" fill="black"/>
<path d="M143.823 98.108C143.447 98.108 143.079 98.076 142.719 98.012C142.359 97.948 142.023 97.856 141.711 97.736C141.407 97.616 141.131 97.464 140.883 97.28C140.787 97.208 140.719 97.128 140.679 97.04C140.647 96.944 140.639 96.852 140.655 96.764C140.679 96.668 140.719 96.588 140.775 96.524C140.839 96.46 140.915 96.424 141.003 96.416C141.091 96.408 141.187 96.436 141.291 96.5C141.651 96.756 142.035 96.944 142.443 97.064C142.851 97.176 143.311 97.232 143.823 97.232C144.543 97.232 145.075 97.1 145.419 96.836C145.771 96.564 145.947 96.208 145.947 95.768C145.947 95.408 145.819 95.128 145.563 94.928C145.315 94.72 144.895 94.556 144.303 94.436L143.055 94.184C142.303 94.024 141.739 93.764 141.363 93.404C140.995 93.036 140.811 92.548 140.811 91.94C140.811 91.564 140.887 91.224 141.039 90.92C141.191 90.608 141.403 90.344 141.675 90.128C141.947 89.904 142.271 89.732 142.647 89.612C143.023 89.492 143.439 89.432 143.895 89.432C144.399 89.432 144.867 89.504 145.299 89.648C145.739 89.784 146.135 89.992 146.487 90.272C146.575 90.344 146.635 90.428 146.667 90.524C146.699 90.612 146.703 90.7 146.679 90.788C146.655 90.868 146.611 90.936 146.547 90.992C146.491 91.048 146.415 91.08 146.319 91.088C146.231 91.096 146.131 91.064 146.019 90.992C145.699 90.752 145.367 90.58 145.023 90.476C144.679 90.364 144.299 90.308 143.883 90.308C143.459 90.308 143.091 90.372 142.779 90.5C142.475 90.628 142.235 90.816 142.059 91.064C141.891 91.304 141.807 91.584 141.807 91.904C141.807 92.288 141.923 92.592 142.155 92.816C142.395 93.04 142.783 93.204 143.319 93.308L144.567 93.572C145.375 93.74 145.971 93.996 146.355 94.34C146.747 94.676 146.943 95.136 146.943 95.72C146.943 96.072 146.871 96.396 146.727 96.692C146.583 96.988 146.375 97.244 146.103 97.46C145.831 97.668 145.503 97.828 145.119 97.94C144.735 98.052 144.303 98.108 143.823 98.108ZM150.762 98.108C150.194 98.108 149.702 97.984 149.286 97.736C148.87 97.488 148.546 97.14 148.314 96.692C148.09 96.236 147.978 95.7 147.978 95.084C147.978 94.62 148.042 94.204 148.17 93.836C148.298 93.46 148.486 93.14 148.734 92.876C148.982 92.612 149.274 92.412 149.61 92.276C149.954 92.132 150.338 92.06 150.762 92.06C151.33 92.06 151.822 92.184 152.238 92.432C152.654 92.68 152.974 93.032 153.198 93.488C153.43 93.936 153.546 94.468 153.546 95.084C153.546 95.548 153.482 95.964 153.354 96.332C153.226 96.7 153.038 97.02 152.79 97.292C152.542 97.556 152.246 97.76 151.902 97.904C151.566 98.04 151.186 98.108 150.762 98.108ZM150.762 97.328C151.122 97.328 151.438 97.24 151.71 97.064C151.982 96.888 152.19 96.632 152.334 96.296C152.486 95.96 152.562 95.556 152.562 95.084C152.562 94.356 152.398 93.8 152.07 93.416C151.75 93.032 151.314 92.84 150.762 92.84C150.394 92.84 150.074 92.928 149.802 93.104C149.538 93.272 149.33 93.524 149.178 93.86C149.034 94.188 148.962 94.596 148.962 95.084C148.962 95.804 149.126 96.36 149.454 96.752C149.782 97.136 150.218 97.328 150.762 97.328ZM156.782 98.108C156.206 98.108 155.766 97.932 155.462 97.58C155.158 97.228 155.006 96.724 155.006 96.068V89.948C155.006 89.788 155.046 89.668 155.126 89.588C155.206 89.5 155.326 89.456 155.486 89.456C155.638 89.456 155.758 89.5 155.846 89.588C155.934 89.668 155.978 89.788 155.978 89.948V95.996C155.978 96.428 156.062 96.752 156.23 96.968C156.406 97.176 156.662 97.28 156.998 97.28C157.07 97.28 157.134 97.276 157.19 97.268C157.246 97.26 157.302 97.256 157.358 97.256C157.446 97.248 157.506 97.268 157.538 97.316C157.578 97.364 157.598 97.46 157.598 97.604C157.598 97.748 157.566 97.856 157.502 97.928C157.438 98 157.334 98.048 157.19 98.072C157.126 98.08 157.058 98.088 156.986 98.096C156.914 98.104 156.846 98.108 156.782 98.108ZM160.621 98.108C160.149 98.108 159.757 98.024 159.445 97.856C159.141 97.68 158.909 97.42 158.749 97.076C158.597 96.732 158.521 96.304 158.521 95.792V92.576C158.521 92.408 158.561 92.284 158.641 92.204C158.729 92.124 158.849 92.084 159.001 92.084C159.161 92.084 159.281 92.124 159.361 92.204C159.449 92.284 159.493 92.408 159.493 92.576V95.78C159.493 96.292 159.597 96.676 159.805 96.932C160.021 97.18 160.357 97.304 160.813 97.304C161.309 97.304 161.713 97.136 162.025 96.8C162.337 96.464 162.493 96.024 162.493 95.48V92.576C162.493 92.408 162.533 92.284 162.613 92.204C162.701 92.124 162.825 92.084 162.985 92.084C163.137 92.084 163.253 92.124 163.333 92.204C163.421 92.284 163.465 92.408 163.465 92.576V97.58C163.465 97.916 163.309 98.084 162.997 98.084C162.845 98.084 162.725 98.04 162.637 97.952C162.557 97.864 162.517 97.74 162.517 97.58V96.488L162.673 96.656C162.513 97.128 162.249 97.488 161.881 97.736C161.521 97.984 161.101 98.108 160.621 98.108ZM167.755 98.108C167.171 98.108 166.667 97.98 166.243 97.724C165.819 97.468 165.491 97.112 165.259 96.656C165.035 96.192 164.923 95.656 164.923 95.048C164.923 94.584 164.987 94.168 165.115 93.8C165.243 93.432 165.431 93.12 165.679 92.864C165.927 92.6 166.223 92.4 166.567 92.264C166.919 92.128 167.315 92.06 167.755 92.06C168.043 92.06 168.343 92.104 168.655 92.192C168.967 92.28 169.251 92.432 169.507 92.648C169.587 92.704 169.639 92.772 169.663 92.852C169.687 92.932 169.687 93.012 169.663 93.092C169.639 93.164 169.599 93.228 169.543 93.284C169.487 93.332 169.415 93.36 169.327 93.368C169.247 93.376 169.163 93.348 169.075 93.284C168.867 93.124 168.655 93.012 168.439 92.948C168.223 92.884 168.015 92.852 167.815 92.852C167.503 92.852 167.231 92.904 166.999 93.008C166.767 93.104 166.571 93.244 166.411 93.428C166.251 93.612 166.127 93.84 166.039 94.112C165.959 94.384 165.919 94.7 165.919 95.06C165.919 95.756 166.083 96.308 166.411 96.716C166.739 97.116 167.207 97.316 167.815 97.316C168.015 97.316 168.219 97.284 168.427 97.22C168.643 97.156 168.859 97.044 169.075 96.884C169.163 96.82 169.247 96.792 169.327 96.8C169.407 96.808 169.475 96.84 169.531 96.896C169.587 96.944 169.623 97.008 169.639 97.088C169.663 97.168 169.663 97.248 169.639 97.328C169.615 97.4 169.563 97.464 169.483 97.52C169.227 97.728 168.947 97.88 168.643 97.976C168.339 98.064 168.043 98.108 167.755 98.108ZM167.743 100.304C167.599 100.304 167.447 100.292 167.287 100.268C167.135 100.252 166.995 100.216 166.867 100.16C166.779 100.128 166.719 100.076 166.687 100.004C166.655 99.932 166.651 99.86 166.675 99.788C166.699 99.716 166.743 99.66 166.807 99.62C166.871 99.588 166.951 99.592 167.047 99.632C167.143 99.672 167.243 99.7 167.347 99.716C167.459 99.732 167.583 99.74 167.719 99.74C167.927 99.74 168.095 99.7 168.223 99.62C168.351 99.548 168.415 99.44 168.415 99.296C168.415 99.192 168.379 99.108 168.307 99.044C168.235 98.988 168.119 98.96 167.959 98.96C167.895 98.96 167.831 98.964 167.767 98.972C167.711 98.98 167.643 98.992 167.563 99.008C167.491 99.032 167.435 99.044 167.395 99.044C167.355 99.044 167.315 99.032 167.275 99.008C167.243 98.976 167.223 98.936 167.215 98.888C167.215 98.848 167.219 98.788 167.227 98.708L167.371 97.76H167.983L167.827 98.66L167.539 98.588C167.635 98.564 167.727 98.544 167.815 98.528C167.911 98.512 167.999 98.504 168.079 98.504C168.367 98.504 168.607 98.576 168.799 98.72C168.991 98.864 169.087 99.064 169.087 99.32C169.087 99.616 168.963 99.852 168.715 100.028C168.467 100.212 168.143 100.304 167.743 100.304ZM173.145 98.108C172.577 98.108 172.085 97.984 171.669 97.736C171.253 97.488 170.929 97.14 170.697 96.692C170.473 96.236 170.361 95.7 170.361 95.084C170.361 94.62 170.425 94.204 170.553 93.836C170.681 93.46 170.869 93.14 171.117 92.876C171.365 92.612 171.657 92.412 171.993 92.276C172.337 92.132 172.721 92.06 173.145 92.06C173.713 92.06 174.205 92.184 174.621 92.432C175.037 92.68 175.357 93.032 175.581 93.488C175.813 93.936 175.929 94.468 175.929 95.084C175.929 95.548 175.865 95.964 175.737 96.332C175.609 96.7 175.421 97.02 175.173 97.292C174.925 97.556 174.629 97.76 174.285 97.904C173.949 98.04 173.569 98.108 173.145 98.108ZM173.145 97.328C173.505 97.328 173.821 97.24 174.093 97.064C174.365 96.888 174.573 96.632 174.717 96.296C174.869 95.96 174.945 95.556 174.945 95.084C174.945 94.356 174.781 93.8 174.453 93.416C174.133 93.032 173.697 92.84 173.145 92.84C172.777 92.84 172.457 92.928 172.185 93.104C171.921 93.272 171.713 93.524 171.561 93.86C171.417 94.188 171.345 94.596 171.345 95.084C171.345 95.804 171.509 96.36 171.837 96.752C172.165 97.136 172.601 97.328 173.145 97.328ZM171.261 90.956C171.181 90.956 171.113 90.928 171.057 90.872C171.009 90.816 170.997 90.732 171.021 90.62C171.053 90.428 171.101 90.252 171.165 90.092C171.229 89.932 171.313 89.792 171.417 89.672C171.521 89.552 171.641 89.46 171.777 89.396C171.921 89.324 172.085 89.288 172.269 89.288C172.469 89.288 172.641 89.336 172.785 89.432C172.937 89.52 173.077 89.624 173.205 89.744C173.341 89.856 173.473 89.96 173.601 90.056C173.729 90.152 173.865 90.2 174.009 90.2C174.193 90.2 174.345 90.132 174.465 89.996C174.593 89.852 174.677 89.664 174.717 89.432C174.733 89.352 174.765 89.296 174.813 89.264C174.869 89.224 174.941 89.208 175.029 89.216C175.109 89.216 175.173 89.244 175.221 89.3C175.277 89.356 175.293 89.44 175.269 89.552C175.229 89.8 175.153 90.024 175.041 90.224C174.937 90.424 174.801 90.584 174.633 90.704C174.465 90.824 174.261 90.884 174.021 90.884C173.821 90.884 173.645 90.84 173.493 90.752C173.349 90.656 173.209 90.548 173.073 90.428C172.945 90.308 172.817 90.204 172.689 90.116C172.561 90.02 172.425 89.972 172.281 89.972C172.097 89.972 171.945 90.04 171.825 90.176C171.705 90.312 171.621 90.5 171.573 90.74C171.557 90.812 171.521 90.868 171.465 90.908C171.417 90.948 171.349 90.964 171.261 90.956ZM180.017 98.108C179.401 98.108 178.869 97.988 178.421 97.748C177.981 97.5 177.637 97.152 177.389 96.704C177.149 96.256 177.029 95.72 177.029 95.096C177.029 94.488 177.149 93.96 177.389 93.512C177.629 93.056 177.957 92.7 178.373 92.444C178.797 92.188 179.285 92.06 179.837 92.06C180.229 92.06 180.581 92.128 180.893 92.264C181.205 92.392 181.469 92.58 181.685 92.828C181.909 93.076 182.077 93.376 182.189 93.728C182.309 94.08 182.369 94.476 182.369 94.916C182.369 95.044 182.333 95.14 182.261 95.204C182.189 95.26 182.085 95.288 181.949 95.288H177.773V94.652H181.721L181.529 94.808C181.529 94.376 181.465 94.012 181.337 93.716C181.209 93.412 181.021 93.18 180.773 93.02C180.533 92.86 180.229 92.78 179.861 92.78C179.453 92.78 179.105 92.876 178.817 93.068C178.537 93.252 178.325 93.512 178.181 93.848C178.037 94.176 177.965 94.56 177.965 95V95.072C177.965 95.808 178.141 96.368 178.493 96.752C178.853 97.136 179.361 97.328 180.017 97.328C180.289 97.328 180.557 97.292 180.821 97.22C181.093 97.148 181.357 97.028 181.613 96.86C181.725 96.788 181.825 96.756 181.913 96.764C182.009 96.764 182.085 96.792 182.141 96.848C182.197 96.896 182.233 96.96 182.249 97.04C182.273 97.112 182.265 97.192 182.225 97.28C182.193 97.368 182.125 97.444 182.021 97.508C181.757 97.7 181.445 97.848 181.085 97.952C180.725 98.056 180.369 98.108 180.017 98.108ZM185.743 98.108C185.383 98.108 185.019 98.064 184.651 97.976C184.291 97.888 183.955 97.736 183.643 97.52C183.563 97.464 183.507 97.4 183.475 97.328C183.443 97.248 183.431 97.172 183.439 97.1C183.455 97.02 183.487 96.952 183.535 96.896C183.591 96.84 183.655 96.808 183.727 96.8C183.807 96.784 183.895 96.8 183.991 96.848C184.303 97.04 184.603 97.176 184.891 97.256C185.187 97.328 185.479 97.364 185.767 97.364C186.223 97.364 186.567 97.28 186.799 97.112C187.031 96.944 187.147 96.716 187.147 96.428C187.147 96.204 187.071 96.028 186.919 95.9C186.767 95.764 186.527 95.66 186.199 95.588L185.107 95.348C184.603 95.244 184.227 95.064 183.979 94.808C183.739 94.552 183.619 94.22 183.619 93.812C183.619 93.452 183.711 93.144 183.895 92.888C184.087 92.624 184.355 92.42 184.699 92.276C185.043 92.132 185.443 92.06 185.899 92.06C186.251 92.06 186.583 92.108 186.895 92.204C187.215 92.292 187.503 92.436 187.759 92.636C187.839 92.692 187.891 92.76 187.915 92.84C187.947 92.912 187.951 92.988 187.927 93.068C187.911 93.14 187.875 93.204 187.819 93.26C187.763 93.308 187.695 93.336 187.615 93.344C187.535 93.352 187.451 93.328 187.363 93.272C187.123 93.112 186.879 92.996 186.631 92.924C186.383 92.844 186.139 92.804 185.899 92.804C185.451 92.804 185.111 92.892 184.879 93.068C184.647 93.244 184.531 93.476 184.531 93.764C184.531 93.988 184.603 94.172 184.747 94.316C184.891 94.46 185.115 94.564 185.419 94.628L186.511 94.856C187.031 94.968 187.419 95.148 187.675 95.396C187.939 95.636 188.071 95.964 188.071 96.38C188.071 96.908 187.859 97.328 187.435 97.64C187.011 97.952 186.447 98.108 185.743 98.108ZM197.338 100.244C197.178 100.244 197.054 100.2 196.966 100.112C196.886 100.032 196.846 99.912 196.846 99.752V96.632H196.978C196.85 97.08 196.598 97.44 196.222 97.712C195.846 97.976 195.394 98.108 194.866 98.108C194.346 98.108 193.89 97.984 193.498 97.736C193.114 97.488 192.814 97.14 192.598 96.692C192.39 96.236 192.286 95.7 192.286 95.084C192.286 94.46 192.39 93.924 192.598 93.476C192.814 93.02 193.114 92.672 193.498 92.432C193.89 92.184 194.346 92.06 194.866 92.06C195.394 92.06 195.846 92.196 196.222 92.468C196.606 92.732 196.862 93.092 196.99 93.548L196.858 93.716V92.576C196.858 92.416 196.898 92.296 196.978 92.216C197.066 92.128 197.186 92.084 197.338 92.084C197.498 92.084 197.618 92.128 197.698 92.216C197.778 92.296 197.818 92.416 197.818 92.576V99.752C197.818 99.912 197.774 100.032 197.686 100.112C197.606 100.2 197.49 100.244 197.338 100.244ZM195.07 97.328C195.43 97.328 195.746 97.24 196.018 97.064C196.29 96.888 196.498 96.632 196.642 96.296C196.794 95.96 196.87 95.556 196.87 95.084C196.87 94.356 196.706 93.8 196.378 93.416C196.058 93.032 195.622 92.84 195.07 92.84C194.702 92.84 194.382 92.928 194.11 93.104C193.846 93.272 193.638 93.524 193.486 93.86C193.342 94.188 193.27 94.596 193.27 95.084C193.27 95.804 193.434 96.36 193.762 96.752C194.09 97.136 194.526 97.328 195.07 97.328ZM201.706 98.108C201.234 98.108 200.842 98.024 200.53 97.856C200.226 97.68 199.994 97.42 199.834 97.076C199.682 96.732 199.606 96.304 199.606 95.792V92.576C199.606 92.408 199.646 92.284 199.726 92.204C199.814 92.124 199.934 92.084 200.086 92.084C200.246 92.084 200.366 92.124 200.446 92.204C200.534 92.284 200.578 92.408 200.578 92.576V95.78C200.578 96.292 200.682 96.676 200.89 96.932C201.106 97.18 201.442 97.304 201.898 97.304C202.394 97.304 202.798 97.136 203.11 96.8C203.422 96.464 203.578 96.024 203.578 95.48V92.576C203.578 92.408 203.618 92.284 203.698 92.204C203.786 92.124 203.91 92.084 204.07 92.084C204.222 92.084 204.338 92.124 204.418 92.204C204.506 92.284 204.55 92.408 204.55 92.576V97.58C204.55 97.916 204.394 98.084 204.082 98.084C203.93 98.084 203.81 98.04 203.722 97.952C203.642 97.864 203.602 97.74 203.602 97.58V96.488L203.758 96.656C203.598 97.128 203.334 97.488 202.966 97.736C202.606 97.984 202.186 98.108 201.706 98.108ZM208.997 98.108C208.381 98.108 207.849 97.988 207.401 97.748C206.961 97.5 206.617 97.152 206.369 96.704C206.129 96.256 206.009 95.72 206.009 95.096C206.009 94.488 206.129 93.96 206.369 93.512C206.609 93.056 206.937 92.7 207.353 92.444C207.777 92.188 208.265 92.06 208.817 92.06C209.209 92.06 209.561 92.128 209.873 92.264C210.185 92.392 210.449 92.58 210.665 92.828C210.889 93.076 211.057 93.376 211.169 93.728C211.289 94.08 211.349 94.476 211.349 94.916C211.349 95.044 211.313 95.14 211.241 95.204C211.169 95.26 211.065 95.288 210.929 95.288H206.753V94.652H210.701L210.509 94.808C210.509 94.376 210.445 94.012 210.317 93.716C210.189 93.412 210.001 93.18 209.753 93.02C209.513 92.86 209.209 92.78 208.841 92.78C208.433 92.78 208.085 92.876 207.797 93.068C207.517 93.252 207.305 93.512 207.161 93.848C207.017 94.176 206.945 94.56 206.945 95V95.072C206.945 95.808 207.121 96.368 207.473 96.752C207.833 97.136 208.341 97.328 208.997 97.328C209.269 97.328 209.537 97.292 209.801 97.22C210.073 97.148 210.337 97.028 210.593 96.86C210.705 96.788 210.805 96.756 210.893 96.764C210.989 96.764 211.065 96.792 211.121 96.848C211.177 96.896 211.213 96.96 211.229 97.04C211.253 97.112 211.245 97.192 211.205 97.28C211.173 97.368 211.105 97.444 211.001 97.508C210.737 97.7 210.425 97.848 210.065 97.952C209.705 98.056 209.349 98.108 208.997 98.108ZM216.354 98.084C216.194 98.084 216.074 98.04 215.994 97.952C215.914 97.864 215.874 97.74 215.874 97.58V92.576C215.874 92.416 215.914 92.296 215.994 92.216C216.074 92.128 216.19 92.084 216.342 92.084C216.494 92.084 216.61 92.128 216.69 92.216C216.778 92.296 216.822 92.416 216.822 92.576V93.632L216.69 93.464C216.842 93.016 217.086 92.672 217.422 92.432C217.766 92.184 218.174 92.06 218.646 92.06C219.142 92.06 219.542 92.18 219.846 92.42C220.158 92.652 220.366 93.016 220.47 93.512H220.29C220.434 93.064 220.69 92.712 221.058 92.456C221.434 92.192 221.87 92.06 222.366 92.06C222.806 92.06 223.166 92.144 223.446 92.312C223.734 92.48 223.95 92.736 224.094 93.08C224.238 93.416 224.31 93.844 224.31 94.364V97.58C224.31 97.74 224.266 97.864 224.178 97.952C224.098 98.04 223.978 98.084 223.818 98.084C223.666 98.084 223.546 98.04 223.458 97.952C223.378 97.864 223.338 97.74 223.338 97.58V94.412C223.338 93.876 223.246 93.484 223.062 93.236C222.878 92.98 222.566 92.852 222.126 92.852C221.646 92.852 221.266 93.02 220.986 93.356C220.714 93.684 220.578 94.132 220.578 94.7V97.58C220.578 97.74 220.534 97.864 220.446 97.952C220.366 98.04 220.246 98.084 220.086 98.084C219.934 98.084 219.814 98.04 219.726 97.952C219.646 97.864 219.606 97.74 219.606 97.58V94.412C219.606 93.876 219.51 93.484 219.318 93.236C219.134 92.98 218.826 92.852 218.394 92.852C217.914 92.852 217.534 93.02 217.254 93.356C216.982 93.684 216.846 94.132 216.846 94.7V97.58C216.846 97.916 216.682 98.084 216.354 98.084ZM228.551 98.108C227.983 98.108 227.491 97.984 227.075 97.736C226.659 97.488 226.335 97.14 226.103 96.692C225.879 96.236 225.767 95.7 225.767 95.084C225.767 94.62 225.831 94.204 225.959 93.836C226.087 93.46 226.275 93.14 226.523 92.876C226.771 92.612 227.063 92.412 227.399 92.276C227.743 92.132 228.127 92.06 228.551 92.06C229.119 92.06 229.611 92.184 230.027 92.432C230.443 92.68 230.763 93.032 230.987 93.488C231.219 93.936 231.335 94.468 231.335 95.084C231.335 95.548 231.271 95.964 231.143 96.332C231.015 96.7 230.827 97.02 230.579 97.292C230.331 97.556 230.035 97.76 229.691 97.904C229.355 98.04 228.975 98.108 228.551 98.108ZM228.551 97.328C228.911 97.328 229.227 97.24 229.499 97.064C229.771 96.888 229.979 96.632 230.123 96.296C230.275 95.96 230.351 95.556 230.351 95.084C230.351 94.356 230.187 93.8 229.859 93.416C229.539 93.032 229.103 92.84 228.551 92.84C228.183 92.84 227.863 92.928 227.591 93.104C227.327 93.272 227.119 93.524 226.967 93.86C226.823 94.188 226.751 94.596 226.751 95.084C226.751 95.804 226.915 96.36 227.243 96.752C227.571 97.136 228.007 97.328 228.551 97.328ZM234.885 98.084C234.749 98.084 234.629 98.048 234.525 97.976C234.421 97.896 234.333 97.776 234.261 97.616L232.185 92.768C232.129 92.648 232.109 92.536 232.125 92.432C232.141 92.328 232.189 92.244 232.269 92.18C232.349 92.116 232.461 92.084 232.605 92.084C232.733 92.084 232.833 92.112 232.905 92.168C232.977 92.224 233.041 92.324 233.097 92.468L235.065 97.28H234.741L236.745 92.468C236.801 92.324 236.865 92.224 236.937 92.168C237.009 92.112 237.113 92.084 237.249 92.084C237.377 92.084 237.473 92.116 237.537 92.18C237.609 92.244 237.649 92.328 237.657 92.432C237.673 92.528 237.657 92.636 237.609 92.756L235.509 97.616C235.453 97.776 235.369 97.896 235.257 97.976C235.153 98.048 235.029 98.084 234.885 98.084ZM241.435 98.108C240.819 98.108 240.287 97.988 239.839 97.748C239.399 97.5 239.055 97.152 238.807 96.704C238.567 96.256 238.447 95.72 238.447 95.096C238.447 94.488 238.567 93.96 238.807 93.512C239.047 93.056 239.375 92.7 239.791 92.444C240.215 92.188 240.703 92.06 241.255 92.06C241.647 92.06 241.999 92.128 242.311 92.264C242.623 92.392 242.887 92.58 243.103 92.828C243.327 93.076 243.495 93.376 243.607 93.728C243.727 94.08 243.787 94.476 243.787 94.916C243.787 95.044 243.751 95.14 243.679 95.204C243.607 95.26 243.503 95.288 243.367 95.288H239.191V94.652H243.139L242.947 94.808C242.947 94.376 242.883 94.012 242.755 93.716C242.627 93.412 242.439 93.18 242.191 93.02C241.951 92.86 241.647 92.78 241.279 92.78C240.871 92.78 240.523 92.876 240.235 93.068C239.955 93.252 239.743 93.512 239.599 93.848C239.455 94.176 239.383 94.56 239.383 95V95.072C239.383 95.808 239.559 96.368 239.911 96.752C240.271 97.136 240.779 97.328 241.435 97.328C241.707 97.328 241.975 97.292 242.239 97.22C242.511 97.148 242.775 97.028 243.031 96.86C243.143 96.788 243.243 96.756 243.331 96.764C243.427 96.764 243.503 96.792 243.559 96.848C243.615 96.896 243.651 96.96 243.667 97.04C243.691 97.112 243.683 97.192 243.643 97.28C243.611 97.368 243.543 97.444 243.439 97.508C243.175 97.7 242.863 97.848 242.503 97.952C242.143 98.056 241.787 98.108 241.435 98.108ZM245.697 98.084C245.537 98.084 245.417 98.04 245.337 97.952C245.257 97.864 245.217 97.74 245.217 97.58V92.576C245.217 92.416 245.257 92.296 245.337 92.216C245.417 92.128 245.533 92.084 245.685 92.084C245.837 92.084 245.953 92.128 246.033 92.216C246.121 92.296 246.165 92.416 246.165 92.576V93.632L246.033 93.464C246.185 93.016 246.429 92.672 246.765 92.432C247.109 92.184 247.517 92.06 247.989 92.06C248.485 92.06 248.885 92.18 249.189 92.42C249.501 92.652 249.709 93.016 249.813 93.512H249.633C249.777 93.064 250.033 92.712 250.401 92.456C250.777 92.192 251.213 92.06 251.709 92.06C252.149 92.06 252.509 92.144 252.789 92.312C253.077 92.48 253.293 92.736 253.437 93.08C253.581 93.416 253.653 93.844 253.653 94.364V97.58C253.653 97.74 253.609 97.864 253.521 97.952C253.441 98.04 253.321 98.084 253.161 98.084C253.009 98.084 252.889 98.04 252.801 97.952C252.721 97.864 252.681 97.74 252.681 97.58V94.412C252.681 93.876 252.589 93.484 252.405 93.236C252.221 92.98 251.909 92.852 251.469 92.852C250.989 92.852 250.609 93.02 250.329 93.356C250.057 93.684 249.921 94.132 249.921 94.7V97.58C249.921 97.74 249.877 97.864 249.789 97.952C249.709 98.04 249.589 98.084 249.429 98.084C249.277 98.084 249.157 98.04 249.069 97.952C248.989 97.864 248.949 97.74 248.949 97.58V94.412C248.949 93.876 248.853 93.484 248.661 93.236C248.477 92.98 248.169 92.852 247.737 92.852C247.257 92.852 246.877 93.02 246.597 93.356C246.325 93.684 246.189 94.132 246.189 94.7V97.58C246.189 97.916 246.025 98.084 245.697 98.084ZM260.988 98.108C260.42 98.108 259.928 97.984 259.512 97.736C259.096 97.488 258.772 97.14 258.54 96.692C258.316 96.236 258.204 95.7 258.204 95.084C258.204 94.62 258.268 94.204 258.396 93.836C258.524 93.46 258.712 93.14 258.96 92.876C259.208 92.612 259.5 92.412 259.836 92.276C260.18 92.132 260.564 92.06 260.988 92.06C261.556 92.06 262.048 92.184 262.464 92.432C262.88 92.68 263.2 93.032 263.424 93.488C263.656 93.936 263.772 94.468 263.772 95.084C263.772 95.548 263.708 95.964 263.58 96.332C263.452 96.7 263.264 97.02 263.016 97.292C262.768 97.556 262.472 97.76 262.128 97.904C261.792 98.04 261.412 98.108 260.988 98.108ZM260.988 97.328C261.348 97.328 261.664 97.24 261.936 97.064C262.208 96.888 262.416 96.632 262.56 96.296C262.712 95.96 262.788 95.556 262.788 95.084C262.788 94.356 262.624 93.8 262.296 93.416C261.976 93.032 261.54 92.84 260.988 92.84C260.62 92.84 260.3 92.928 260.028 93.104C259.764 93.272 259.556 93.524 259.404 93.86C259.26 94.188 259.188 94.596 259.188 95.084C259.188 95.804 259.352 96.36 259.68 96.752C260.008 97.136 260.444 97.328 260.988 97.328ZM269.118 98.084C268.966 98.084 268.846 98.04 268.758 97.952C268.678 97.864 268.638 97.74 268.638 97.58V92.924H267.87C267.742 92.924 267.638 92.892 267.558 92.828C267.486 92.756 267.45 92.66 267.45 92.54C267.45 92.42 267.486 92.328 267.558 92.264C267.638 92.2 267.742 92.168 267.87 92.168H268.902L268.638 92.42V91.964C268.638 91.204 268.822 90.624 269.19 90.224C269.566 89.824 270.114 89.592 270.834 89.528L271.182 89.492C271.294 89.484 271.382 89.504 271.446 89.552C271.518 89.6 271.562 89.66 271.578 89.732C271.602 89.804 271.606 89.88 271.59 89.96C271.574 90.032 271.538 90.096 271.482 90.152C271.426 90.208 271.358 90.24 271.278 90.248L271.002 90.272C270.514 90.312 270.158 90.46 269.934 90.716C269.718 90.972 269.61 91.348 269.61 91.844V92.348L269.466 92.168H270.906C271.042 92.168 271.146 92.2 271.218 92.264C271.29 92.328 271.326 92.42 271.326 92.54C271.326 92.66 271.29 92.756 271.218 92.828C271.146 92.892 271.042 92.924 270.906 92.924H269.61V97.58C269.61 97.916 269.446 98.084 269.118 98.084ZM274.386 98.108C273.914 98.108 273.522 98.024 273.21 97.856C272.906 97.68 272.674 97.42 272.514 97.076C272.362 96.732 272.286 96.304 272.286 95.792V92.576C272.286 92.408 272.326 92.284 272.406 92.204C272.494 92.124 272.614 92.084 272.766 92.084C272.926 92.084 273.046 92.124 273.126 92.204C273.214 92.284 273.258 92.408 273.258 92.576V95.78C273.258 96.292 273.362 96.676 273.57 96.932C273.786 97.18 274.122 97.304 274.578 97.304C275.074 97.304 275.478 97.136 275.79 96.8C276.102 96.464 276.258 96.024 276.258 95.48V92.576C276.258 92.408 276.298 92.284 276.378 92.204C276.466 92.124 276.59 92.084 276.75 92.084C276.902 92.084 277.018 92.124 277.098 92.204C277.186 92.284 277.23 92.408 277.23 92.576V97.58C277.23 97.916 277.074 98.084 276.762 98.084C276.61 98.084 276.49 98.04 276.402 97.952C276.322 97.864 276.282 97.74 276.282 97.58V96.488L276.438 96.656C276.278 97.128 276.014 97.488 275.646 97.736C275.286 97.984 274.866 98.108 274.386 98.108ZM281.389 98.108C280.933 98.108 280.549 98.028 280.237 97.868C279.933 97.7 279.705 97.46 279.553 97.148C279.401 96.828 279.325 96.44 279.325 95.984V92.924H278.521C278.385 92.924 278.281 92.892 278.209 92.828C278.137 92.756 278.101 92.66 278.101 92.54C278.101 92.42 278.137 92.328 278.209 92.264C278.281 92.2 278.385 92.168 278.521 92.168H279.325V90.788C279.325 90.628 279.369 90.508 279.457 90.428C279.545 90.34 279.665 90.296 279.817 90.296C279.969 90.296 280.085 90.34 280.165 90.428C280.253 90.508 280.297 90.628 280.297 90.788V92.168H281.809C281.945 92.168 282.049 92.2 282.121 92.264C282.193 92.328 282.229 92.42 282.229 92.54C282.229 92.66 282.193 92.756 282.121 92.828C282.049 92.892 281.945 92.924 281.809 92.924H280.297V95.888C280.297 96.344 280.393 96.692 280.585 96.932C280.777 97.164 281.089 97.28 281.521 97.28C281.673 97.28 281.801 97.264 281.905 97.232C282.017 97.2 282.109 97.184 282.181 97.184C282.253 97.176 282.313 97.2 282.361 97.256C282.409 97.312 282.433 97.408 282.433 97.544C282.433 97.64 282.413 97.728 282.373 97.808C282.341 97.888 282.281 97.944 282.193 97.976C282.097 98.008 281.969 98.036 281.809 98.06C281.657 98.092 281.517 98.108 281.389 98.108ZM285.308 98.108C284.836 98.108 284.444 98.024 284.132 97.856C283.828 97.68 283.596 97.42 283.436 97.076C283.284 96.732 283.208 96.304 283.208 95.792V92.576C283.208 92.408 283.248 92.284 283.328 92.204C283.416 92.124 283.536 92.084 283.688 92.084C283.848 92.084 283.968 92.124 284.048 92.204C284.136 92.284 284.18 92.408 284.18 92.576V95.78C284.18 96.292 284.284 96.676 284.492 96.932C284.708 97.18 285.044 97.304 285.5 97.304C285.996 97.304 286.4 97.136 286.712 96.8C287.024 96.464 287.18 96.024 287.18 95.48V92.576C287.18 92.408 287.22 92.284 287.3 92.204C287.388 92.124 287.512 92.084 287.672 92.084C287.824 92.084 287.94 92.124 288.02 92.204C288.108 92.284 288.152 92.408 288.152 92.576V97.58C288.152 97.916 287.996 98.084 287.684 98.084C287.532 98.084 287.412 98.04 287.324 97.952C287.244 97.864 287.204 97.74 287.204 97.58V96.488L287.36 96.656C287.2 97.128 286.936 97.488 286.568 97.736C286.208 97.984 285.788 98.108 285.308 98.108ZM290.463 98.084C290.303 98.084 290.179 98.04 290.091 97.952C290.011 97.864 289.971 97.74 289.971 97.58V92.576C289.971 92.416 290.011 92.296 290.091 92.216C290.171 92.128 290.287 92.084 290.439 92.084C290.591 92.084 290.707 92.128 290.787 92.216C290.875 92.296 290.919 92.416 290.919 92.576V93.548H290.799C290.927 93.076 291.171 92.712 291.531 92.456C291.891 92.2 292.335 92.064 292.863 92.048C292.983 92.04 293.079 92.068 293.151 92.132C293.223 92.188 293.263 92.288 293.271 92.432C293.279 92.568 293.247 92.676 293.175 92.756C293.103 92.836 292.991 92.884 292.839 92.9L292.647 92.924C292.103 92.972 291.683 93.148 291.387 93.452C291.099 93.748 290.955 94.156 290.955 94.676V97.58C290.955 97.74 290.911 97.864 290.823 97.952C290.743 98.04 290.623 98.084 290.463 98.084ZM296.625 98.108C296.057 98.108 295.565 97.984 295.149 97.736C294.733 97.488 294.409 97.14 294.177 96.692C293.953 96.236 293.841 95.7 293.841 95.084C293.841 94.62 293.905 94.204 294.033 93.836C294.161 93.46 294.349 93.14 294.597 92.876C294.845 92.612 295.137 92.412 295.473 92.276C295.817 92.132 296.201 92.06 296.625 92.06C297.193 92.06 297.685 92.184 298.101 92.432C298.517 92.68 298.837 93.032 299.061 93.488C299.293 93.936 299.409 94.468 299.409 95.084C299.409 95.548 299.345 95.964 299.217 96.332C299.089 96.7 298.901 97.02 298.653 97.292C298.405 97.556 298.109 97.76 297.765 97.904C297.429 98.04 297.049 98.108 296.625 98.108ZM296.625 97.328C296.985 97.328 297.301 97.24 297.573 97.064C297.845 96.888 298.053 96.632 298.197 96.296C298.349 95.96 298.425 95.556 298.425 95.084C298.425 94.356 298.261 93.8 297.933 93.416C297.613 93.032 297.177 92.84 296.625 92.84C296.257 92.84 295.937 92.928 295.665 93.104C295.401 93.272 295.193 93.524 295.041 93.86C294.897 94.188 294.825 94.596 294.825 95.084C294.825 95.804 294.989 96.36 295.317 96.752C295.645 97.136 296.081 97.328 296.625 97.328Z" fill="#A8A9AA"/>
</svg>
